<svg version="1.1" id="Layer_1" xmlns="http://www.w3.org/2000/svg" xmlns:xlink="http://www.w3.org/1999/xlink" x="0px" y="0px"
	 width="100%" viewBox="0 0 200 200" enable-background="new 0 0 200 200" xml:space="preserve">
<path fill="#121E48" opacity="1.000000" stroke="none" 
	d="
M115.000000,201.000000 
	C76.690323,201.000000 38.880650,201.000000 1.035486,201.000000 
	C1.035486,134.398697 1.035486,67.797363 1.035486,1.098018 
	C67.559509,1.098018 134.119202,1.098018 200.839447,1.098018 
	C200.839447,67.666359 200.839447,134.333145 200.839447,201.000000 
	C172.464310,201.000000 143.982162,201.000000 115.000000,201.000000 
M149.806046,38.246578 
	C149.806046,38.246578 149.915649,38.092686 149.502426,37.664818 
	C148.064377,37.427540 146.627701,36.995331 145.188049,36.985249 
	C137.049805,36.928223 128.909805,37.060658 120.772339,36.964634 
	C101.022354,36.731586 81.273888,36.305294 61.523655,36.217934 
	C58.036819,36.202507 54.544392,37.450615 51.073792,38.597084 
	C51.073792,38.597084 51.155144,39.072414 51.032001,39.993427 
	C51.103539,65.296898 51.175079,90.600365 51.142715,116.757332 
	C52.458267,133.634216 60.346718,146.789139 74.526192,155.722778 
	C90.227844,165.615479 106.996651,166.386414 123.473671,157.999542 
	C140.010635,149.582184 149.247025,135.677399 150.971405,116.046310 
	C150.945068,90.384499 150.918732,64.722687 150.727341,38.629314 
	C150.490753,38.369228 150.207458,38.299953 149.806046,38.246578 
z"/>
<path fill="#08CDAD" opacity="1.000000" stroke="none" 
	d="
M150.783264,116.961952 
	C149.247025,135.677399 140.010635,149.582184 123.473671,157.999542 
	C106.996651,166.386414 90.227844,165.615479 74.526192,155.722778 
	C60.346718,146.789139 52.458267,133.634216 51.316429,115.947609 
	C51.653454,112.651802 51.953102,110.166016 51.958519,107.679588 
	C52.002090,87.682487 51.969311,67.685219 52.006374,47.688087 
	C52.019684,40.506416 52.535130,39.991573 59.693184,39.985111 
	C87.189301,39.960297 114.685463,39.962570 142.181595,39.983406 
	C149.535339,39.988976 150.004211,40.480782 150.012192,48.055515 
	C150.033615,68.385971 149.992599,88.716553 150.054321,109.046852 
	C150.062332,111.685936 150.529022,114.323616 150.783264,116.961952 
M72.973824,146.032440 
	C72.973824,146.032440 72.908813,146.046021 73.115616,146.517548 
	C73.414017,146.665054 73.712410,146.812561 74.000839,147.007660 
	C74.000839,147.007660 74.038979,146.977478 74.355522,147.535187 
	C74.894379,147.880676 75.433235,148.226166 76.169106,148.853439 
	C76.355835,149.009048 76.570198,149.075470 77.077202,149.469360 
	C77.309448,149.735291 77.602074,149.865952 78.178040,150.087738 
	C78.178040,150.087738 78.490318,150.146561 78.973991,150.695038 
	C90.229584,157.026230 101.938477,159.001053 114.133202,154.369659 
	C114.133202,154.369659 114.128487,154.570755 114.894524,154.486649 
	C117.285942,153.344925 119.677361,152.203217 122.028763,151.016998 
	C122.028763,151.016998 122.024574,151.076691 122.667221,150.923859 
	C122.974998,150.621078 123.282776,150.318283 123.883842,150.084030 
	C123.883842,150.084030 124.122826,149.900726 124.579239,149.808426 
	C124.869156,149.656708 125.069115,149.426727 125.654762,148.970566 
	C125.654762,148.970566 126.037041,148.651215 126.527893,148.473495 
	C127.020355,148.001053 127.512825,147.528595 128.051697,147.076187 
	C128.051697,147.076187 128.051773,147.025650 128.542801,146.906891 
	C128.733459,146.639832 128.924118,146.372757 129.722977,145.826340 
	C132.806122,142.216187 135.889252,138.606018 139.310699,134.537827 
	C139.521835,134.013626 139.732971,133.489410 139.970566,132.970459 
	C139.970566,132.970459 139.957428,132.946060 140.336075,132.765198 
	C140.531525,132.168182 140.726974,131.571167 140.996292,130.406540 
	C141.252548,129.907196 141.508804,129.407852 142.277390,128.400726 
	C143.473160,123.619545 145.615265,118.855370 145.701599,114.054245 
	C146.084076,92.783752 145.919952,71.502419 145.800598,50.225864 
	C145.790863,48.489635 144.628738,46.759869 143.064240,44.992584 
	C115.034477,45.067295 87.004715,45.142006 58.469143,45.221291 
	C58.214874,45.434498 57.960606,45.647709 57.299633,45.890263 
	C57.299633,45.890263 56.901863,45.979919 56.620060,46.754875 
	C56.473736,47.402298 56.200600,48.049492 56.199425,48.697174 
	C56.158226,71.467484 56.100693,94.238060 56.215134,117.007744 
	C56.222977,118.568810 57.544537,120.123276 58.628246,122.165207 
	C58.680458,122.767052 58.732670,123.368904 58.741516,124.462540 
	C58.869640,125.139992 58.997761,125.817451 59.546497,126.651085 
	C59.660252,127.070488 59.774006,127.489899 59.900433,128.188477 
	C59.946083,128.467224 60.044151,128.727051 60.593033,129.334091 
	C60.731976,129.849716 60.870918,130.365326 61.015652,131.298248 
	C61.352123,131.871597 61.688599,132.444931 62.512093,133.415436 
	C63.332214,134.607178 64.152336,135.798904 64.947449,137.032684 
	C64.947449,137.032684 64.996292,137.035751 65.105202,137.575180 
	C65.361115,137.825470 65.617020,138.075760 66.028381,138.746872 
	C66.028381,138.746872 66.350983,139.058624 66.421844,139.445297 
	C66.550972,139.692932 66.749916,139.854721 67.215706,140.473419 
	C67.763916,140.999527 68.312126,141.525620 69.099159,142.608444 
	C69.691818,143.130341 70.284477,143.652252 71.060768,144.599182 
	C71.256516,144.860184 71.515411,145.016785 72.072433,145.551453 
	C72.374428,145.733871 72.676414,145.916290 72.973824,146.032440 
z"/>
<path fill="#1DC3B1" opacity="1.000000" stroke="none" 
	d="
M150.877319,116.504135 
	C150.529022,114.323616 150.062332,111.685936 150.054321,109.046852 
	C149.992599,88.716553 150.033615,68.385971 150.012192,48.055515 
	C150.004211,40.480782 149.535339,39.988976 142.181595,39.983406 
	C114.685463,39.962570 87.189301,39.960297 59.693184,39.985111 
	C52.535130,39.991573 52.019684,40.506416 52.006374,47.688087 
	C51.969311,67.685219 52.002090,87.682487 51.958519,107.679588 
	C51.953102,110.166016 51.653454,112.651802 51.368378,115.520859 
	C51.175079,90.600365 51.103539,65.296898 51.283340,39.463779 
	C51.794781,38.831161 52.000263,38.661884 52.609631,38.403557 
	C72.708321,38.374599 92.348572,38.399166 111.988647,38.351101 
	C124.631119,38.320164 137.273331,38.182510 149.915649,38.092690 
	C149.915649,38.092686 149.806046,38.246578 149.980988,38.482124 
	C150.383789,38.869873 150.629288,38.984280 150.892395,39.060879 
	C150.918732,64.722687 150.945068,90.384499 150.877319,116.504135 
z"/>
<path fill="#012441" opacity="1.000000" stroke="none" 
	d="
M149.709045,37.878754 
	C137.273331,38.182510 124.631119,38.320164 111.988647,38.351101 
	C92.348572,38.399166 72.708321,38.374599 52.345318,38.290268 
	C51.433178,38.171547 51.243862,38.143383 51.054546,38.115227 
	C54.544392,37.450615 58.036819,36.202507 61.523655,36.217934 
	C81.273888,36.305294 101.022354,36.731586 120.772339,36.964634 
	C128.909805,37.060658 137.049805,36.928223 145.188049,36.985249 
	C146.627701,36.995331 148.064377,37.427540 149.709045,37.878754 
z"/>
<path fill="#197D85" opacity="1.000000" stroke="none" 
	d="
M51.064171,38.356155 
	C51.243862,38.143383 51.433178,38.171547 51.886806,38.313004 
	C52.000263,38.661884 51.794781,38.831161 51.344910,39.003273 
	C51.155144,39.072414 51.073792,38.597084 51.064171,38.356155 
z"/>
<path fill="#197D85" opacity="1.000000" stroke="none" 
	d="
M150.809875,38.845097 
	C150.629288,38.984280 150.383789,38.869873 150.016693,38.569576 
	C150.207458,38.299953 150.490753,38.369228 150.809875,38.845097 
z"/>
<path fill="#102048" opacity="1.000000" stroke="none" 
	d="
M141.765060,128.908524 
	C141.508804,129.407852 141.252548,129.907196 140.743286,130.876892 
	C140.312653,131.880173 140.135040,132.413116 139.957428,132.946060 
	C139.957428,132.946060 139.970566,132.970459 139.732910,133.155762 
	C139.320969,133.892670 139.146683,134.444260 138.972382,134.995850 
	C135.889252,138.606018 132.806122,142.216187 129.230042,146.103943 
	C128.491150,146.577591 128.262695,146.792297 128.051773,147.025650 
	C128.051773,147.025650 128.051697,147.076187 127.790176,147.164673 
	C127.031448,147.719193 126.534241,148.185196 126.037041,148.651215 
	C126.037041,148.651215 125.654762,148.970566 125.229134,149.157440 
	C124.558914,149.508133 124.332016,149.693604 124.122826,149.900726 
	C124.122826,149.900726 123.883842,150.084030 123.467575,150.213898 
	C122.709061,150.588074 122.366814,150.832382 122.024567,151.076691 
	C122.024574,151.076691 122.028763,151.016998 121.663971,151.049805 
	C118.908943,152.245331 116.518715,153.408035 114.128487,154.570755 
	C114.128487,154.570755 114.133202,154.369659 113.777237,154.325348 
	C102.296188,155.554352 91.308182,155.713730 80.932755,150.481247 
	C80.238838,150.131302 79.309929,150.247284 78.490318,150.146561 
	C78.490318,150.146561 78.178040,150.087738 77.891930,149.818619 
	C77.360649,149.352966 77.096107,149.187363 76.812195,149.052689 
	C76.570198,149.075470 76.355835,149.009048 75.859352,148.475800 
	C75.046059,147.724609 74.542519,147.351044 74.038979,146.977478 
	C74.038979,146.977478 74.000839,147.007660 73.837173,146.813904 
	C73.437378,146.403793 73.182480,146.212402 72.908813,146.046021 
	C72.908813,146.046021 72.973824,146.032440 72.801308,145.876556 
	C72.365013,145.503433 72.101234,145.286194 71.837456,145.068970 
	C71.515411,145.016785 71.256516,144.860184 70.834099,144.121002 
	C70.025063,143.112457 69.442703,142.582092 68.860336,142.051727 
	C68.312126,141.525620 67.763916,140.999527 67.028740,140.039795 
	C66.707024,139.397797 66.543427,139.215286 66.350983,139.058624 
	C66.350983,139.058624 66.028381,138.746872 65.822510,138.310547 
	C65.409859,137.594727 65.203079,137.315247 64.996292,137.035751 
	C64.996292,137.035751 64.947449,137.032684 64.923111,136.664032 
	C63.970211,134.511551 63.041645,132.727722 62.081970,130.536255 
	C61.038410,122.912331 59.288307,115.709816 59.153336,108.477158 
	C58.765602,87.699379 59.031254,66.909409 59.504192,46.096684 
	C87.990417,46.073277 116.012581,46.077419 144.113098,46.540169 
	C143.243332,74.297897 146.313736,101.716057 141.765060,128.908524 
M75.325142,72.920547 
	C73.883919,78.824593 71.744637,84.662453 71.177017,90.649323 
	C70.456810,98.245537 70.903259,105.964684 71.041916,113.627289 
	C71.290825,127.382797 79.971062,138.665909 93.175598,142.366806 
	C95.589882,143.043488 98.192207,143.049225 101.045212,143.406982 
	C101.045212,136.294617 101.243233,130.127670 100.972336,123.981377 
	C100.804749,120.178810 101.706909,118.572441 105.918709,117.933815 
	C122.869461,115.363571 134.177429,98.677849 130.360794,82.253548 
	C127.489243,69.896225 119.711174,61.818317 107.368797,59.215889 
	C94.168709,56.432610 83.492607,61.208458 75.325142,72.920547 
z"/>
<path fill="#1DB6A8" opacity="1.000000" stroke="none" 
	d="
M142.021225,128.654633 
	C146.313736,101.716057 143.243332,74.297897 144.146362,46.274796 
	C144.068222,45.376247 144.035156,45.201672 144.002075,45.027100 
	C144.628738,46.759869 145.790863,48.489635 145.800598,50.225864 
	C145.919952,71.502419 146.084076,92.783752 145.701599,114.054245 
	C145.615265,118.855370 143.473160,123.619545 142.021225,128.654633 
z"/>
<path fill="#012F44" opacity="1.000000" stroke="none" 
	d="
M59.040131,46.124233 
	C59.031254,66.909409 58.765602,87.699379 59.153336,108.477158 
	C59.288307,115.709816 61.038410,122.912331 62.000603,130.599182 
	C61.950344,131.069763 61.789005,131.197403 61.592999,131.121307 
	C61.396992,131.045197 61.009861,130.880951 61.009861,130.880951 
	C60.870918,130.365326 60.731976,129.849716 60.351227,128.876617 
	C60.035542,128.249207 59.961655,128.079254 59.887764,127.909302 
	C59.774006,127.489899 59.660252,127.070488 59.375900,126.132156 
	C59.065159,125.065735 58.925018,124.518242 58.784882,123.970749 
	C58.732670,123.368904 58.680458,122.767052 58.428909,121.539124 
	C58.080990,119.646469 57.932415,118.379898 57.860832,116.641006 
	C57.860664,92.732758 57.783497,69.296837 57.706337,45.860916 
	C57.960606,45.647709 58.214874,45.434498 58.734039,45.446190 
	C58.998932,45.671093 59.040131,46.124233 59.040131,46.124233 
z"/>
<path fill="#003F52" opacity="1.000000" stroke="none" 
	d="
M59.504192,46.096684 
	C59.040131,46.124233 58.998932,45.671093 58.986946,45.443901 
	C87.004715,45.142006 115.034477,45.067295 143.533157,45.009842 
	C144.035156,45.201672 144.068222,45.376247 144.068008,45.816193 
	C116.012581,46.077419 87.990417,46.073277 59.504192,46.096684 
z"/>
<path fill="#1BCBB6" opacity="1.000000" stroke="none" 
	d="
M57.783840,117.113327 
	C57.932415,118.379898 58.080990,119.646469 58.242355,121.296928 
	C57.544537,120.123276 56.222977,118.568810 56.215134,117.007744 
	C56.100693,94.238060 56.158226,71.467484 56.199425,48.697174 
	C56.200600,48.049492 56.473736,47.402298 56.788700,46.836899 
	C56.979195,67.856033 56.976227,88.793236 57.056076,109.730133 
	C57.065464,112.192093 57.530193,114.652306 57.783840,117.113327 
z"/>
<path fill="#208E90" opacity="1.000000" stroke="none" 
	d="
M57.860832,116.641006 
	C57.530193,114.652306 57.065464,112.192093 57.056076,109.730133 
	C56.976227,88.793236 56.979195,67.856033 56.929604,46.449417 
	C56.901863,45.979919 57.299633,45.890263 57.502983,45.875587 
	C57.783497,69.296837 57.860664,92.732758 57.860832,116.641006 
z"/>
<path fill="#012F44" opacity="1.000000" stroke="none" 
	d="
M78.732155,150.420807 
	C79.309929,150.247284 80.238838,150.131302 80.932755,150.481247 
	C91.308182,155.713730 102.296188,155.554352 113.877777,154.327744 
	C101.938477,159.001053 90.229584,157.026230 78.732155,150.420807 
z"/>
<path fill="#012F44" opacity="1.000000" stroke="none" 
	d="
M114.511505,154.528702 
	C116.518715,153.408035 118.908943,152.245331 121.683975,151.072067 
	C119.677361,152.203217 117.285942,153.344925 114.511505,154.528702 
z"/>
<path fill="#012F44" opacity="1.000000" stroke="none" 
	d="
M62.031708,131.006821 
	C63.041645,132.727722 63.970211,134.511551 64.935623,136.643005 
	C64.152336,135.798904 63.332214,134.607178 62.235600,132.912018 
	C61.902405,132.004852 61.845703,131.601135 61.789005,131.197403 
	C61.789005,131.197403 61.950344,131.069763 62.031708,131.006821 
z"/>
<path fill="#1DB6A8" opacity="1.000000" stroke="none" 
	d="
M140.146759,132.855621 
	C140.135040,132.413116 140.312653,131.880173 140.706360,131.160690 
	C140.726974,131.571167 140.531525,132.168182 140.146759,132.855621 
z"/>
<path fill="#012F44" opacity="1.000000" stroke="none" 
	d="
M126.282471,148.562347 
	C126.534241,148.185196 127.031448,147.719193 127.766968,147.154663 
	C127.512825,147.528595 127.020355,148.001053 126.282471,148.562347 
z"/>
<path fill="#012F44" opacity="1.000000" stroke="none" 
	d="
M68.979752,142.330078 
	C69.442703,142.582092 70.025063,143.112457 70.742279,143.908478 
	C70.284477,143.652252 69.691818,143.130341 68.979752,142.330078 
z"/>
<path fill="#1BCBB6" opacity="1.000000" stroke="none" 
	d="
M61.592999,131.121307 
	C61.845703,131.601135 61.902405,132.004852 61.992088,132.713440 
	C61.688599,132.444931 61.352123,131.871597 61.012756,131.089600 
	C61.009861,130.880951 61.396992,131.045197 61.592999,131.121307 
z"/>
<path fill="#012F44" opacity="1.000000" stroke="none" 
	d="
M74.197250,147.256332 
	C74.542519,147.351044 75.046059,147.724609 75.760849,148.334915 
	C75.433235,148.226166 74.894379,147.880676 74.197250,147.256332 
z"/>
<path fill="#1BCBB6" opacity="1.000000" stroke="none" 
	d="
M58.763199,124.216644 
	C58.925018,124.518242 59.065159,125.065735 59.165592,126.054062 
	C58.997761,125.817451 58.869640,125.139992 58.763199,124.216644 
z"/>
<path fill="#1DB6A8" opacity="1.000000" stroke="none" 
	d="
M139.141541,134.766846 
	C139.146683,134.444260 139.320969,133.892670 139.719681,133.153137 
	C139.732971,133.489410 139.521835,134.013626 139.141541,134.766846 
z"/>
<path fill="#012F44" opacity="1.000000" stroke="none" 
	d="
M128.297287,146.966278 
	C128.262695,146.792297 128.491150,146.577591 128.925934,146.243607 
	C128.924118,146.372757 128.733459,146.639832 128.297287,146.966278 
z"/>
<path fill="#012F44" opacity="1.000000" stroke="none" 
	d="
M76.944702,149.261017 
	C77.096107,149.187363 77.360649,149.352966 77.780457,149.705414 
	C77.602074,149.865952 77.309448,149.735291 76.944702,149.261017 
z"/>
<path fill="#012F44" opacity="1.000000" stroke="none" 
	d="
M124.351028,149.854584 
	C124.332016,149.693604 124.558914,149.508133 124.991310,149.231400 
	C125.069115,149.426727 124.869156,149.656708 124.351028,149.854584 
z"/>
<path fill="#012F44" opacity="1.000000" stroke="none" 
	d="
M122.345894,151.000275 
	C122.366814,150.832382 122.709061,150.588074 123.320930,150.179626 
	C123.282776,150.318283 122.974998,150.621078 122.345894,151.000275 
z"/>
<path fill="#012F44" opacity="1.000000" stroke="none" 
	d="
M73.012215,146.281784 
	C73.182480,146.212402 73.437378,146.403793 73.842163,146.790131 
	C73.712410,146.812561 73.414017,146.665054 73.012215,146.281784 
z"/>
<path fill="#012F44" opacity="1.000000" stroke="none" 
	d="
M71.954941,145.310211 
	C72.101234,145.286194 72.365013,145.503433 72.803596,145.909683 
	C72.676414,145.916290 72.374428,145.733871 71.954941,145.310211 
z"/>
<path fill="#012F44" opacity="1.000000" stroke="none" 
	d="
M66.386414,139.251953 
	C66.543427,139.215286 66.707024,139.397797 66.930237,139.768402 
	C66.749916,139.854721 66.550972,139.692932 66.386414,139.251953 
z"/>
<path fill="#012F44" opacity="1.000000" stroke="none" 
	d="
M65.050751,137.305466 
	C65.203079,137.315247 65.409859,137.594727 65.744781,138.100128 
	C65.617020,138.075760 65.361115,137.825470 65.050751,137.305466 
z"/>
<path fill="#1BCBB6" opacity="1.000000" stroke="none" 
	d="
M59.894096,128.048889 
	C59.961655,128.079254 60.035542,128.249207 60.152031,128.693542 
	C60.044151,128.727051 59.946083,128.467224 59.894096,128.048889 
z"/>
<path fill="#0BCAAD" opacity="1.000000" stroke="none" 
	d="
M75.529907,72.615463 
	C83.492607,61.208458 94.168709,56.432610 107.368797,59.215889 
	C119.711174,61.818317 127.489243,69.896225 130.360794,82.253548 
	C134.177429,98.677849 122.869461,115.363571 105.918709,117.933815 
	C101.706909,118.572441 100.804749,120.178810 100.972336,123.981377 
	C101.243233,130.127670 101.045212,136.294617 101.045212,143.406982 
	C98.192207,143.049225 95.589882,143.043488 93.175598,142.366806 
	C79.971062,138.665909 71.290825,127.382797 71.041916,113.627289 
	C70.903259,105.964684 70.456810,98.245537 71.177017,90.649323 
	C71.744637,84.662453 73.883919,78.824593 75.529907,72.615463 
M81.784531,74.540909 
	C80.881935,76.105309 79.979332,77.669701 79.050133,79.603043 
	C79.050133,79.603043 78.940231,79.956238 78.488380,80.532623 
	C77.920776,82.233925 76.909264,83.922325 76.859413,85.638657 
	C76.586792,95.024506 76.461983,104.417694 76.513641,113.807114 
	C76.523018,115.511292 77.587082,117.209671 78.512329,119.430618 
	C78.929146,120.372879 79.345970,121.315140 79.773384,122.191010 
	C79.773384,122.191010 79.706207,122.188400 79.818260,122.890549 
	C81.068207,124.760872 82.318146,126.631195 83.590431,128.350143 
	C83.590431,128.350143 83.439049,128.327896 83.734703,128.933823 
	C85.081924,130.047668 86.429153,131.161514 87.875572,132.127975 
	C87.875572,132.127975 87.750877,132.254562 88.203560,132.807251 
	C90.220253,133.534332 92.236954,134.261398 94.655647,134.987244 
	C94.655647,134.987244 95.048859,134.903610 95.350075,134.151230 
	C95.558189,132.678802 95.944427,131.206741 95.947449,129.733887 
	C95.986732,110.630432 95.995972,91.526779 95.930008,72.423454 
	C95.923836,70.636414 95.355721,68.851303 94.639717,67.003006 
	C94.639717,67.003006 94.226784,67.016075 93.484688,66.745575 
	C90.643936,68.498672 87.803192,70.251770 84.531769,72.177429 
	C84.246292,72.345581 84.073082,72.592491 83.537086,73.144012 
	C83.146202,73.489853 82.755310,73.835686 81.784531,74.540909 
M114.682198,107.299103 
	C123.937355,99.724487 126.817108,88.885811 122.246819,78.827736 
	C118.342361,70.234985 109.356888,64.611839 101.538284,65.839340 
	C101.538284,81.170792 101.538284,96.491074 101.538284,112.873558 
	C106.258606,110.945938 110.179947,109.344589 114.682198,107.299103 
z"/>
<path fill="#0F2349" opacity="1.000000" stroke="none" 
	d="
M114.391739,107.521172 
	C110.179947,109.344589 106.258606,110.945938 101.538284,112.873558 
	C101.538284,96.491074 101.538284,81.170792 101.538284,65.839340 
	C109.356888,64.611839 118.342361,70.234985 122.246819,78.827736 
	C126.817108,88.885811 123.937355,99.724487 114.391739,107.521172 
z"/>
<path fill="#121E48" opacity="1.000000" stroke="none" 
	d="
M84.012138,72.918159 
	C84.073082,72.592491 84.246292,72.345581 85.085907,72.002426 
	C87.608917,71.145546 89.577774,70.463661 91.910889,69.655624 
	C92.262955,71.612526 92.742805,73.043182 92.744026,74.474251 
	C92.759308,92.346848 92.707939,110.219513 92.666382,128.092148 
	C92.658714,131.386887 90.597519,132.293549 87.750877,132.254562 
	C87.750877,132.254562 87.875572,132.127975 87.736778,131.872986 
	C86.211670,130.521301 84.825363,129.424591 83.439049,128.327896 
	C83.439049,128.327896 83.590431,128.350143 83.542389,128.054581 
	C82.231636,125.902138 80.968925,124.045265 79.706207,122.188400 
	C79.706207,122.188400 79.773384,122.191010 79.813789,121.736580 
	C79.897690,107.172638 79.941177,93.063118 79.997108,78.982132 
	C80.009552,79.010658 79.948059,79.019760 80.142403,78.771454 
	C80.555611,78.164330 80.774483,77.805511 80.956779,77.367126 
	C80.920212,77.287567 81.051048,77.171181 81.215630,76.964142 
	C81.586006,76.475067 81.791801,76.193047 81.957924,75.967644 
	C81.918243,76.024261 81.804993,75.944916 82.078522,75.770233 
	C82.905411,74.703087 83.458771,73.810623 84.012138,72.918159 
z"/>
<path fill="#1DCEB7" opacity="1.000000" stroke="none" 
	d="
M95.048515,67.065300 
	C95.355721,68.851303 95.923836,70.636414 95.930008,72.423454 
	C95.995972,91.526779 95.986732,110.630432 95.947449,129.733887 
	C95.944427,131.206741 95.558189,132.678802 95.157364,134.263641 
	C94.798012,133.868652 94.631378,133.361252 94.440552,132.514954 
	C94.425850,131.497421 94.435349,130.818802 94.581512,129.759003 
	C94.614601,125.870171 94.511024,122.362503 94.393631,118.395630 
	C94.389793,110.670753 94.399780,103.405075 94.556213,95.797699 
	C94.606079,93.257225 94.509514,91.058449 94.401833,88.418579 
	C94.396332,85.033218 94.401939,82.088959 94.536880,78.935135 
	C94.580956,78.102768 94.495689,77.479958 94.397415,76.485779 
	C94.392372,75.123665 94.400330,74.132912 94.556763,72.788773 
	C94.819649,70.645363 94.934082,68.855331 95.048515,67.065300 
z"/>
<path fill="#022C44" opacity="1.000000" stroke="none" 
	d="
M94.407547,79.144691 
	C94.401939,82.088959 94.396332,85.033218 94.288689,88.864174 
	C94.261032,91.880379 94.335396,94.009888 94.409760,96.139404 
	C94.399780,103.405075 94.389793,110.670753 94.283989,118.856461 
	C94.273720,123.231056 94.359283,126.685623 94.444847,130.140182 
	C94.435349,130.818802 94.425850,131.497421 94.326355,132.860199 
	C94.242119,134.025726 94.247887,134.507111 94.253647,134.988480 
	C92.236954,134.261398 90.220253,133.534332 87.977219,132.530914 
	C90.597519,132.293549 92.658714,131.386887 92.666382,128.092148 
	C92.707939,110.219513 92.759308,92.346848 92.744026,74.474251 
	C92.742805,73.043182 92.262955,71.612526 91.910889,69.655624 
	C89.577774,70.463661 87.608917,71.145546 85.301247,71.916153 
	C87.803192,70.251770 90.643936,68.498672 93.802773,67.312363 
	C94.216675,69.633492 94.312485,71.387825 94.408295,73.142159 
	C94.400330,74.132912 94.392372,75.123665 94.307701,76.863602 
	C94.289841,78.123421 94.348701,78.634056 94.407547,79.144691 
z"/>
<path fill="#022C44" opacity="1.000000" stroke="none" 
	d="
M79.984665,78.953606 
	C79.941177,93.063118 79.897690,107.172638 79.808495,121.769775 
	C79.345970,121.315140 78.929146,120.372879 78.331970,118.708580 
	C78.414482,105.309776 78.677361,92.633003 78.940231,79.956238 
	C78.940231,79.956238 79.050133,79.603043 79.288116,79.340469 
	C79.526108,79.077888 79.984665,78.953606 79.984665,78.953606 
z"/>
<path fill="#1DB3A6" opacity="1.000000" stroke="none" 
	d="
M78.714310,80.244431 
	C78.677361,92.633003 78.414482,105.309776 78.157928,118.448639 
	C77.587082,117.209671 76.523018,115.511292 76.513641,113.807114 
	C76.461983,104.417694 76.586792,95.024506 76.859413,85.638657 
	C76.909264,83.922325 77.920776,82.233925 78.714310,80.244431 
z"/>
<path fill="#022C44" opacity="1.000000" stroke="none" 
	d="
M79.762238,122.539474 
	C80.968925,124.045265 82.231636,125.902138 83.531219,128.130264 
	C82.318146,126.631195 81.068207,124.760872 79.762238,122.539474 
z"/>
<path fill="#022C44" opacity="1.000000" stroke="none" 
	d="
M83.586876,128.630859 
	C84.825363,129.424591 86.211670,130.521301 87.687180,131.946686 
	C86.429153,131.161514 85.081924,130.047668 83.586876,128.630859 
z"/>
<path fill="#1DB3A6" opacity="1.000000" stroke="none" 
	d="
M79.997108,78.982132 
	C79.984665,78.953606 79.526108,79.077888 79.301422,79.155991 
	C79.979332,77.669701 80.881935,76.105309 81.988907,74.657249 
	C82.063858,75.164032 81.934425,75.554474 81.804993,75.944916 
	C81.804993,75.944916 81.918243,76.024261 81.701202,76.082703 
	C81.339783,76.484489 81.195419,76.827835 81.051056,77.171181 
	C81.051048,77.171181 80.920212,77.287567 80.706024,77.571915 
	C80.310570,78.244095 80.129311,78.631927 79.948059,79.019760 
	C79.948059,79.019760 80.009552,79.010658 79.997108,78.982132 
z"/>
<path fill="#198789" opacity="1.000000" stroke="none" 
	d="
M94.556763,72.788773 
	C94.312485,71.387825 94.216675,69.633492 94.173820,67.447617 
	C94.226784,67.016075 94.639717,67.003006 94.844116,67.034149 
	C94.934082,68.855331 94.819649,70.645363 94.556763,72.788773 
z"/>
<path fill="#022C44" opacity="1.000000" stroke="none" 
	d="
M82.078522,75.770233 
	C81.934425,75.554474 82.063858,75.164032 82.278854,74.477554 
	C82.755310,73.835686 83.146202,73.489853 83.774612,73.031082 
	C83.458771,73.810623 82.905411,74.703087 82.078522,75.770233 
z"/>
<path fill="#198789" opacity="1.000000" stroke="none" 
	d="
M94.454651,134.987854 
	C94.247887,134.507111 94.242119,134.025726 94.350555,133.199097 
	C94.631378,133.361252 94.798012,133.868652 95.006752,134.639832 
	C95.048859,134.903610 94.655647,134.987244 94.454651,134.987854 
z"/>
<path fill="#022C44" opacity="1.000000" stroke="none" 
	d="
M80.142403,78.771454 
	C80.129311,78.631927 80.310570,78.244095 80.742584,77.651474 
	C80.774483,77.805511 80.555611,78.164330 80.142403,78.771454 
z"/>
<path fill="#022C44" opacity="1.000000" stroke="none" 
	d="
M81.215637,76.964142 
	C81.195419,76.827835 81.339783,76.484489 81.740875,76.026077 
	C81.791801,76.193047 81.586006,76.475067 81.215637,76.964142 
z"/>
<path fill="#198789" opacity="1.000000" stroke="none" 
	d="
M94.581512,129.759003 
	C94.359283,126.685623 94.273720,123.231056 94.297806,119.315666 
	C94.511024,122.362503 94.614601,125.870171 94.581512,129.759003 
z"/>
<path fill="#198789" opacity="1.000000" stroke="none" 
	d="
M94.556206,95.797699 
	C94.335396,94.009888 94.261032,91.880379 94.299805,89.305267 
	C94.509514,91.058449 94.606079,93.257225 94.556206,95.797699 
z"/>
<path fill="#198789" opacity="1.000000" stroke="none" 
	d="
M94.536888,78.935135 
	C94.348701,78.634056 94.289841,78.123421 94.320709,77.234962 
	C94.495689,77.479958 94.580956,78.102768 94.536888,78.935135 
z"/>
</svg>