<svg version="1.1" id="Layer_1" xmlns="http://www.w3.org/2000/svg" xmlns:xlink="http://www.w3.org/1999/xlink" x="0px" y="0px"
	 width="100%" viewBox="0 0 300 200" enable-background="new 0 0 300 200" xml:space="preserve">
<path fill="#FFFFFF" opacity="1.000000" stroke="none" 
	d="
M1.000000,61.000000 
	C1.000000,41.018318 1.000000,21.036633 1.000000,1.027475 
	C100.890091,1.027475 200.780182,1.027475 301.000000,1.027475 
	C301.000000,40.020275 301.000000,79.041481 300.696289,118.462799 
	C299.607758,118.202126 298.822906,117.541328 297.910767,116.598068 
	C297.188843,116.265953 296.594208,116.216309 295.668671,116.097122 
	C294.891693,116.073944 294.445618,116.120308 293.650757,116.100784 
	C291.923492,117.689735 290.545044,119.344559 289.095673,121.384018 
	C289.309692,123.191513 289.594666,124.614365 289.938995,126.410179 
	C293.731018,131.129669 295.769104,131.169846 301.000000,127.000000 
	C301.000000,151.645035 301.000000,176.290054 301.000000,200.967545 
	C201.109375,200.967545 101.218735,200.967545 1.000000,200.967545 
	C1.000000,159.646347 1.000000,118.291832 1.356672,76.586548 
	C4.440786,77.658829 6.390256,76.972710 6.944797,73.902664 
	C7.484218,70.916321 5.841686,69.728111 2.956363,69.992119 
	C2.309417,70.051308 1.652387,70.000290 1.000000,70.000000 
	C1.000000,68.611107 1.000000,67.222221 1.355538,65.539291 
	C3.909379,65.542923 6.107682,65.840591 8.305984,66.138268 
	C8.434380,64.556915 8.562776,62.975559 8.691172,61.394211 
	C6.127448,61.262806 3.563724,61.131405 1.000000,61.000000 
M37.357613,51.768921 
	C36.713192,50.500622 36.289284,48.369492 35.380104,48.137127 
	C33.249290,47.592545 30.886053,47.957371 28.616907,47.954041 
	C28.736868,50.101597 28.073925,52.823215 29.139961,54.277061 
	C31.351336,57.292900 34.321102,55.551304 36.986080,54.935966 
	C36.990913,55.593113 37.063675,56.258045 36.989426,56.906132 
	C36.545330,60.782444 38.905769,60.999210 41.893471,61.070286 
	C45.253284,61.150208 46.081539,59.667820 46.052727,56.605282 
	C45.991646,50.113537 41.335411,52.436962 37.357613,51.768921 
M23.311607,102.796898 
	C22.326406,102.248695 21.154074,101.050842 20.390165,101.270889 
	C17.827681,102.009003 14.295300,102.623383 13.248322,104.478363 
	C12.175102,106.379845 12.649332,110.928726 14.150291,112.061989 
	C16.044661,113.492279 20.210024,113.686386 22.418125,112.536514 
	C26.241934,110.545250 25.199036,106.506447 24.626307,102.493469 
	C26.674309,103.207886 28.854403,104.758636 30.742466,104.460419 
	C34.526718,103.862732 36.359352,99.655678 34.863544,95.893822 
	C33.316059,92.002007 29.670889,92.429031 26.840946,93.285744 
	C23.359322,94.339745 21.566835,96.962975 23.892393,100.820671 
	C24.232878,101.385468 23.995556,102.298599 23.311607,102.796898 
M215.468872,68.867523 
	C211.026871,69.293823 206.584885,69.720123 201.855057,70.174042 
	C199.912231,66.889565 195.789444,70.020325 192.479691,68.916122 
	C191.966827,70.683296 191.548401,72.125023 191.105698,73.650429 
	C192.905762,73.937851 194.299423,74.160393 195.606537,74.369102 
	C194.189713,82.634033 192.818024,90.635582 191.437042,98.691498 
	C193.587738,98.691498 195.665802,98.691498 197.671417,98.691498 
	C198.572403,93.727554 199.088501,88.979126 200.385559,84.454582 
	C201.160126,81.752678 202.760696,79.003250 204.739655,77.025200 
	C206.197037,75.568466 208.868240,75.326126 210.998581,74.542664 
	C211.548981,76.936401 212.762543,79.400345 212.518066,81.709946 
	C211.924957,87.313110 210.653442,92.844452 209.591736,98.758606 
	C212.173065,98.758606 213.917801,98.758606 215.851135,98.758606 
	C216.259109,96.489304 216.479294,94.374641 217.035416,92.352356 
	C218.279266,87.829269 219.097992,83.035103 221.267548,78.981682 
	C222.466400,76.741844 226.432007,74.118286 228.464111,74.594742 
	C232.177399,75.465332 231.110458,79.588196 230.663788,82.685539 
	C230.128113,86.400108 229.460449,90.098289 229.026184,93.824112 
	C228.542908,97.970238 231.528534,99.395782 234.728729,99.824570 
	C235.955963,99.989006 237.733978,98.538719 238.636627,97.350067 
	C238.977615,96.901016 237.578979,95.100815 236.931290,93.939980 
	C236.346405,92.891701 235.079681,91.797836 235.196365,90.858597 
	C235.676468,86.994347 236.250610,83.082588 237.399368,79.377167 
	C238.562866,75.624199 237.852478,72.386711 235.257446,69.937416 
	C232.373581,67.215523 228.549911,67.002174 225.172012,69.037140 
	C222.018723,70.936783 219.235901,71.133232 215.468872,68.867523 
M79.783684,79.931572 
	C83.052719,81.171516 87.104141,81.477875 87.954170,85.870819 
	C88.685822,89.651985 85.377121,93.459908 81.189827,93.991859 
	C76.348854,94.606857 74.346954,92.625557 73.590240,86.251953 
	C71.889259,86.251953 70.158707,86.251953 68.458298,86.251953 
	C67.263245,95.625015 68.216377,98.132385 74.503777,99.673523 
	C77.489754,100.405441 80.840370,100.309273 83.919495,99.859886 
	C89.742340,99.010063 94.148613,94.564514 94.977753,89.429123 
	C96.093018,82.521667 94.249229,79.212952 87.358086,75.746307 
	C85.313080,74.717552 83.124672,73.892494 81.265167,72.596481 
	C78.792976,70.873444 77.128227,68.298927 79.824539,65.774284 
	C81.621590,64.091637 84.611755,62.216240 86.623695,62.623230 
	C88.845337,63.072628 90.559578,66.030334 92.494827,67.895531 
	C92.238861,68.195282 91.982903,68.495041 91.726936,68.794800 
	C93.346764,68.794800 94.966591,68.794800 96.499245,68.794800 
	C99.831032,60.715202 97.293030,57.969707 90.642349,56.382336 
	C84.010185,54.799377 74.800842,57.100163 72.709846,63.984329 
	C70.576744,71.007111 71.571014,75.153076 79.783684,79.931572 
M108.930702,116.810875 
	C108.434151,114.943115 107.937592,113.075363 107.072540,109.821541 
	C104.948860,111.402031 102.584244,112.299362 101.669579,113.983955 
	C96.156250,124.138184 91.078308,134.528336 85.599854,144.702347 
	C84.437523,146.860901 82.219315,148.450867 80.487587,150.302811 
	C80.074272,150.010773 79.660950,149.718735 79.247635,149.426697 
	C79.247635,150.827881 79.247635,152.229065 79.247635,154.000000 
	C81.451866,154.000000 83.420509,154.000000 85.389153,154.000000 
	C87.518661,154.000000 89.648178,154.000000 92.874840,154.000000 
	C91.727837,151.496750 90.953346,149.806503 89.886955,147.479172 
	C93.398834,139.187500 96.235703,137.989807 107.721184,140.651230 
	C108.027718,143.266876 108.329109,145.838593 108.664612,148.701431 
	C105.943977,149.054199 102.594353,149.335037 104.615021,153.849182 
	C108.632538,153.849182 112.598671,153.849182 116.532951,153.849182 
	C117.035889,152.342651 117.489861,150.982803 117.666313,150.454254 
	C115.914940,148.831497 113.552940,147.713730 113.286522,146.221756 
	C111.596573,136.757950 110.369873,127.211403 108.930702,116.810875 
M182.998138,85.446632 
	C183.916687,80.080872 184.835220,74.715118 185.908234,68.447067 
	C181.660812,70.580826 175.668549,65.593727 173.790680,73.322235 
	C175.417389,73.844360 176.711136,74.259605 177.997208,74.672394 
	C177.997208,75.667885 178.098770,76.350243 177.981476,76.992645 
	C176.838516,83.253029 176.249863,89.881454 169.453644,93.049599 
	C168.166534,93.649597 166.050812,93.887199 165.012314,93.216324 
	C163.925110,92.513969 162.979126,90.410255 163.176849,89.101120 
	C164.169449,82.528839 165.556808,76.016182 166.805832,69.480705 
	C157.075531,67.997719 156.162643,68.308884 155.141678,73.679268 
	C159.221573,73.550301 159.369812,75.562225 158.612061,79.034203 
	C157.605408,83.646591 157.262299,88.445312 157.070129,93.181671 
	C156.895370,97.488396 159.366806,100.301086 163.689377,99.863831 
	C167.729980,99.455093 171.656570,97.919411 176.112305,96.754517 
	C181.893784,101.876083 184.007004,101.497040 185.605698,94.366714 
	C184.408173,94.067841 183.210648,93.768959 181.645370,93.378296 
	C182.137985,90.787636 182.561920,88.558258 182.998138,85.446632 
M187.081024,145.710144 
	C188.053589,141.270599 189.343811,136.871521 189.915604,132.380951 
	C190.580322,127.160820 188.454773,123.599152 183.265869,122.938072 
	C178.949768,122.388199 174.384384,123.794815 169.527954,124.383469 
	C170.578613,127.203430 171.108170,128.624725 171.171890,128.795776 
	C175.598587,128.317245 179.373840,127.352470 182.948242,127.845085 
	C184.094604,128.003067 184.710190,132.012161 185.851578,135.000046 
	C182.747864,135.000046 180.944443,134.967255 179.142609,135.006348 
	C174.256668,135.112366 169.589203,135.965683 166.405762,140.124176 
	C164.118103,143.112564 163.455002,146.603683 165.104355,150.093826 
	C166.486923,153.019440 168.937881,154.702484 172.332428,153.966751 
	C175.901382,153.193207 179.413208,152.156097 182.830261,151.265366 
	C183.602386,151.959778 184.631638,153.651077 185.746613,153.709625 
	C187.441193,153.798630 189.992371,153.259033 190.740173,152.076279 
	C191.907028,150.230698 190.650848,148.763535 188.134048,148.824799 
	C187.779022,148.833450 187.387863,147.358353 187.081024,145.710144 
M104.694260,98.143242 
	C112.060005,101.527031 118.826759,100.804855 125.092842,95.369400 
	C124.344833,93.531960 123.688309,91.919243 123.014465,90.263977 
	C114.446205,95.473503 108.813484,95.200981 106.232941,89.617912 
	C104.022209,84.834930 107.703804,77.491493 113.670929,74.781883 
	C117.822891,72.896507 120.081985,74.024033 121.918488,79.032257 
	C123.473312,78.952560 125.074211,78.870514 126.615387,78.791519 
	C127.419304,71.078987 126.483971,69.363701 121.000481,68.068703 
	C114.790024,66.602028 106.012932,70.357384 102.875168,75.363457 
	C97.433838,84.044678 98.364494,92.905739 104.694260,98.143242 
M201.937332,152.113907 
	C202.617966,148.268295 203.683029,144.442703 203.884583,140.572144 
	C204.153168,135.413818 206.927948,131.816711 210.673203,129.125397 
	C212.405655,127.880447 215.527878,127.612740 217.637527,128.223373 
	C218.823608,128.566666 219.956604,131.650269 219.841187,133.416183 
	C219.577606,137.449661 218.641754,141.456024 217.777679,145.429642 
	C216.353729,151.977921 219.192719,154.815231 226.080231,153.278854 
	C225.942596,152.012573 225.998779,149.651596 225.631973,149.583939 
	C219.565765,148.465057 223.005371,144.285461 223.130127,141.508667 
	C223.259171,138.636871 224.368912,135.819366 224.930847,132.954803 
	C226.396301,125.484222 221.572571,121.016037 214.079666,122.974861 
	C211.624237,123.616768 209.269196,124.642754 206.868240,125.493103 
	C206.996567,125.203888 207.124893,124.914673 207.253204,124.625458 
	C203.962906,123.939270 200.672607,123.253090 197.382294,122.566902 
	C197.050217,123.237122 196.718124,123.907341 196.386047,124.577568 
	C197.788025,125.774445 199.189987,126.971329 200.904861,128.435333 
	C200.333572,132.140930 199.712006,136.489929 198.981567,140.820557 
	C198.262100,145.086166 197.432266,149.333160 196.454666,154.656723 
	C198.975723,153.788742 200.274033,153.341751 201.937332,152.113907 
M261.000458,137.861877 
	C261.000305,139.357681 261.044098,140.855026 260.992035,142.349030 
	C260.809357,147.593170 262.671661,151.489456 267.888641,153.412918 
	C272.115875,154.971481 280.855194,153.824875 283.290070,151.085419 
	C283.828125,150.480042 283.781189,149.354736 284.212708,147.636169 
	C281.432556,148.161957 279.146240,148.273392 277.108215,149.042679 
	C271.936615,150.994812 268.001038,149.089676 265.867218,143.979187 
	C264.190002,139.962265 265.526489,138.917053 269.333862,138.976685 
	C275.099731,139.066971 280.868042,139.000275 287.000000,139.000275 
	C287.000000,136.370010 287.013977,134.242203 286.997437,132.114624 
	C286.941376,124.899353 281.685364,121.186035 274.539368,122.711212 
	C266.582764,124.409393 262.794128,129.645721 261.000458,137.861877 
M257.559204,131.908997 
	C258.438843,125.659027 257.602997,124.149307 251.644913,123.078621 
	C248.901871,122.585678 245.826187,122.422302 243.191162,123.153671 
	C236.915146,124.895622 232.527557,129.438950 231.388824,135.642288 
	C230.422012,140.909058 229.393845,146.832840 234.683197,151.277084 
	C239.003006,154.906723 247.898468,155.104355 253.010406,151.607834 
	C255.990677,149.569351 255.579697,148.004395 253.321106,145.954712 
	C251.454483,147.025421 249.865723,148.225021 248.079605,148.909851 
	C241.421356,151.462814 237.066940,149.444885 235.864594,142.321930 
	C234.617401,134.933289 240.011002,127.413605 247.759552,127.183708 
	C249.465897,127.133064 252.421112,129.101471 252.741470,130.584946 
	C253.452164,133.875977 254.976456,133.170258 257.559204,131.908997 
M138.900513,91.303108 
	C139.213913,84.466507 141.752594,77.872009 147.907089,75.521416 
	C152.739746,73.675674 151.959457,71.518433 151.713013,67.313713 
	C148.193146,68.775620 145.181824,70.026314 142.170486,71.277008 
	C140.334366,69.872215 138.141541,68.970566 136.038162,69.145370 
	C134.312424,69.288795 132.693100,70.712440 131.026596,71.568611 
	C132.141907,72.789795 133.257202,74.010986 134.987686,75.905746 
	C133.802917,82.668976 132.430756,90.501854 131.059494,98.329659 
	C137.309967,99.677055 137.309967,99.677055 138.900513,91.303108 
M129.001083,134.570679 
	C130.391068,126.840393 131.781052,119.110100 133.178818,111.336578 
	C129.274841,111.336578 126.202690,111.336578 123.130539,111.336578 
	C122.819405,111.729874 122.508263,112.123161 122.197128,112.516457 
	C123.593666,114.119781 124.990204,115.723106 126.994682,118.024399 
	C126.994682,117.824928 127.148468,118.850876 126.970482,119.815613 
	C125.466644,127.967110 123.772171,136.086227 122.439270,144.264679 
	C122.064331,146.565231 122.017731,149.416321 123.085983,151.295593 
	C123.919312,152.761581 126.680916,153.602615 128.650360,153.731369 
	C129.497650,153.786774 130.508636,151.338623 131.777756,149.562531 
	C129.676544,149.134750 128.454224,148.885910 126.740967,148.537125 
	C127.514542,144.054672 128.256653,139.754547 129.001083,134.570679 
M138.023438,112.270851 
	C137.700058,113.333771 137.376694,114.396690 136.996994,115.644768 
	C138.755707,115.905273 140.331894,116.138748 141.755295,116.349586 
	C140.128601,126.387497 138.554733,136.162674 136.957397,145.934021 
	C135.887466,152.479248 138.316223,154.772736 146.248032,153.032913 
	C144.655243,151.247375 143.468323,150.036728 142.433685,148.707550 
	C141.898209,148.019669 141.196381,147.050293 141.314209,146.329849 
	C142.255783,140.572800 143.415741,134.852005 144.429565,129.106094 
	C145.462646,123.251068 146.405685,117.380142 147.502640,110.832764 
	C143.733536,111.070702 140.972946,111.244972 138.023438,112.270851 
M156.568817,123.000015 
	C154.192200,123.218964 150.905289,122.022224 151.094589,126.632080 
	C152.697693,126.887070 154.204147,127.126694 155.692749,127.363472 
	C154.761322,132.094681 153.772766,136.533417 153.045120,141.014526 
	C152.550415,144.061172 151.738312,147.324478 152.397018,150.184845 
	C152.764069,151.778595 155.737885,153.034424 157.775772,153.833282 
	C158.454773,154.099457 159.876205,152.471710 160.958237,151.709763 
	C159.824188,150.372681 158.690140,149.035599 156.911163,146.938126 
	C158.057632,141.167404 159.397934,134.324768 160.783981,127.491394 
	C161.347122,124.714928 161.382324,122.421356 156.568817,123.000015 
M17.920687,126.588959 
	C18.352739,125.552673 18.748262,124.499306 19.223265,123.483101 
	C21.127621,119.408943 18.244013,116.848534 15.591833,115.458145 
	C12.083550,113.618942 9.005991,115.482399 6.979145,118.973404 
	C4.985759,122.406792 6.104442,125.626328 8.938604,127.029762 
	C11.193830,128.146515 14.482133,127.177002 17.920687,126.588959 
M42.719196,101.925575 
	C43.500835,101.771271 44.307316,101.693611 45.059917,101.449699 
	C48.756100,100.251801 49.714451,97.389748 48.871433,94.051506 
	C48.048294,90.791969 45.088028,90.483528 42.474277,91.124207 
	C40.847954,91.522858 38.675236,92.831001 38.213924,94.218445 
	C37.107727,97.545464 38.506855,100.272720 42.719196,101.925575 
M52.953224,103.416840 
	C55.476532,103.501640 58.195438,104.149620 60.420856,103.376701 
	C61.239357,103.092438 61.711609,98.971825 60.839088,97.479912 
	C60.014702,96.070305 57.026810,94.884613 55.326649,95.234352 
	C51.130318,96.097580 51.726391,99.621994 52.953224,103.416840 
M51.997753,66.502907 
	C52.099251,62.472656 49.648270,61.138882 46.353004,62.162556 
	C44.641617,62.694202 42.043064,65.208443 42.294308,66.216972 
	C42.825062,68.347527 44.650215,71.163933 46.522404,71.707268 
	C49.100880,72.455566 52.096035,71.220329 51.997753,66.502907 
M62.912205,107.441971 
	C63.143963,109.316315 62.718437,112.028053 63.772194,112.855156 
	C65.119812,113.912926 68.017181,114.167770 69.563118,113.397209 
	C70.626732,112.867058 71.088066,109.923752 70.832657,108.205582 
	C70.317612,104.740784 67.533829,104.298065 62.912205,107.441971 
M17.076387,51.297337 
	C18.250154,54.733444 20.741419,56.332027 23.808111,54.341179 
	C25.019341,53.554863 25.616690,50.247372 25.033340,48.607220 
	C23.893541,45.402538 19.450951,46.515640 17.076387,51.297337 
M74.635559,120.180748 
	C71.055534,117.161446 67.470345,117.433121 67.081223,120.846802 
	C66.834457,123.011627 66.269646,125.676117 69.946495,126.028389 
	C73.879593,126.405205 75.636887,124.968292 74.635559,120.180748 
M12.264441,51.091743 
	C10.845778,52.671375 9.212495,54.125706 8.164075,55.921494 
	C7.911827,56.353554 9.672100,58.836670 10.380305,58.780518 
	C12.137489,58.641201 13.821595,57.580173 15.535056,56.889385 
	C14.674042,55.080929 13.813027,53.272476 12.264441,51.091743 
M66.356812,132.191132 
	C66.259155,134.061295 66.161499,135.931458 66.017860,138.682175 
	C68.779030,137.868362 70.853897,137.564331 72.518829,136.572296 
	C72.996941,136.287430 72.764496,133.297714 72.025871,132.811111 
	C70.664040,131.914001 68.686325,131.951797 66.356812,132.191132 
M59.129818,146.399567 
	C60.805630,147.236923 62.436520,148.216766 64.200943,148.773117 
	C64.499199,148.867157 65.898621,147.106033 65.848541,146.257538 
	C65.784470,145.171875 64.473099,143.166763 64.206993,143.246765 
	C62.438969,143.778336 60.806713,144.761459 59.129818,146.399567 
M162.362427,116.861580 
	C162.594635,115.012840 162.826859,113.164101 163.103149,110.964401 
	C161.002930,111.085991 159.587479,111.167938 158.238251,111.246048 
	C157.989990,113.289375 157.782135,115.000069 157.541595,116.979683 
	C158.877808,116.979683 160.187683,116.979683 162.362427,116.861580 
M51.538845,154.982132 
	C53.006607,154.305145 54.474373,153.628159 55.942139,152.951172 
	C55.218204,151.752563 54.670815,150.367844 53.691296,149.438660 
	C53.242699,149.013123 51.192665,149.343506 51.150402,149.570084 
	C50.826229,151.308136 50.817413,153.105011 51.538845,154.982132 
M4.815646,80.104156 
	C3.427629,82.345100 3.190052,84.483063 6.156469,85.374557 
	C6.822602,85.574745 8.588297,84.140938 8.881151,83.168304 
	C9.672430,80.540298 8.168083,79.612686 4.815646,80.104156 
z"/>
<path fill="#59595C" opacity="1.000000" stroke="none" 
	d="
M289.166626,120.999390 
	C290.545044,119.344559 291.923492,117.689735 293.652100,116.472748 
	C296.334839,119.607063 298.667419,122.303535 301.000000,125.000000 
	C301.000000,125.444443 301.000000,125.888893 301.000000,126.666672 
	C295.769104,131.169846 293.731018,131.129669 290.291351,126.353348 
	C291.640869,124.584160 292.697418,123.244759 294.208282,121.329369 
	C292.010071,121.185501 290.588348,121.092453 289.166626,120.999390 
z"/>
<path fill="#F99B1F" opacity="1.000000" stroke="none" 
	d="
M1.000000,61.399998 
	C3.563724,61.131405 6.127448,61.262806 8.691172,61.394211 
	C8.562776,62.975559 8.434380,64.556915 8.305984,66.138268 
	C6.107682,65.840591 3.909379,65.542923 1.355538,65.122627 
	C1.000000,63.933331 1.000000,62.866661 1.000000,61.399998 
z"/>
<path fill="#F89820" opacity="1.000000" stroke="none" 
	d="
M1.000000,70.428467 
	C1.652387,70.000290 2.309417,70.051308 2.956363,69.992119 
	C5.841686,69.728111 7.484218,70.916321 6.944797,73.902664 
	C6.390256,76.972710 4.440786,77.658829 1.356672,76.117889 
	C1.000000,74.285645 1.000000,72.571281 1.000000,70.428467 
z"/>
<path fill="#59595C" opacity="1.000000" stroke="none" 
	d="
M301.000000,124.571533 
	C298.667419,122.303535 296.334839,119.607063 294.000916,116.538628 
	C294.445618,116.120308 294.891693,116.073944 295.675232,116.425301 
	C296.251007,117.393143 296.489258,117.963280 296.727478,118.533417 
	C297.164337,117.982452 297.601196,117.431496 298.038055,116.880531 
	C298.822906,117.541328 299.607758,118.202126 300.696289,118.931458 
	C301.000000,120.714355 301.000000,122.428719 301.000000,124.571533 
z"/>
<path fill="#1C9DD9" opacity="1.000000" stroke="none" 
	d="
M215.875397,68.926514 
	C219.235901,71.133232 222.018723,70.936783 225.172012,69.037140 
	C228.549911,67.002174 232.373581,67.215523 235.257446,69.937416 
	C237.852478,72.386711 238.562866,75.624199 237.399368,79.377167 
	C236.250610,83.082588 235.676468,86.994347 235.196365,90.858597 
	C235.079681,91.797836 236.346405,92.891701 236.931290,93.939980 
	C237.578979,95.100815 238.977615,96.901016 238.636627,97.350067 
	C237.733978,98.538719 235.955963,99.989006 234.728729,99.824570 
	C231.528534,99.395782 228.542908,97.970238 229.026184,93.824112 
	C229.460449,90.098289 230.128113,86.400108 230.663788,82.685539 
	C231.110458,79.588196 232.177399,75.465332 228.464111,74.594742 
	C226.432007,74.118286 222.466400,76.741844 221.267548,78.981682 
	C219.097992,83.035103 218.279266,87.829269 217.035416,92.352356 
	C216.479294,94.374641 216.259109,96.489304 215.851135,98.758606 
	C213.917801,98.758606 212.173065,98.758606 209.591736,98.758606 
	C210.653442,92.844452 211.924957,87.313110 212.518066,81.709946 
	C212.762543,79.400345 211.548981,76.936401 210.998581,74.542664 
	C208.868240,75.326126 206.197037,75.568466 204.739655,77.025200 
	C202.760696,79.003250 201.160126,81.752678 200.385559,84.454582 
	C199.088501,88.979126 198.572403,93.727554 197.671417,98.691498 
	C195.665802,98.691498 193.587738,98.691498 191.437042,98.691498 
	C192.818024,90.635582 194.189713,82.634033 195.606537,74.369102 
	C194.299423,74.160393 192.905762,73.937851 191.105698,73.650429 
	C191.548401,72.125023 191.966827,70.683296 192.479691,68.916122 
	C195.789444,70.020325 199.912231,66.889565 201.855057,70.174042 
	C206.584885,69.720123 211.026871,69.293823 215.875397,68.926514 
z"/>
<path fill="#1C9DD9" opacity="1.000000" stroke="none" 
	d="
M79.442696,79.761612 
	C71.571014,75.153076 70.576744,71.007111 72.709846,63.984329 
	C74.800842,57.100163 84.010185,54.799377 90.642349,56.382336 
	C97.293030,57.969707 99.831032,60.715202 96.499245,68.794800 
	C94.966591,68.794800 93.346764,68.794800 91.726936,68.794800 
	C91.982903,68.495041 92.238861,68.195282 92.494827,67.895531 
	C90.559578,66.030334 88.845337,63.072628 86.623695,62.623230 
	C84.611755,62.216240 81.621590,64.091637 79.824539,65.774284 
	C77.128227,68.298927 78.792976,70.873444 81.265167,72.596481 
	C83.124672,73.892494 85.313080,74.717552 87.358086,75.746307 
	C94.249229,79.212952 96.093018,82.521667 94.977753,89.429123 
	C94.148613,94.564514 89.742340,99.010063 83.919495,99.859886 
	C80.840370,100.309273 77.489754,100.405441 74.503777,99.673523 
	C68.216377,98.132385 67.263245,95.625015 68.458298,86.251953 
	C70.158707,86.251953 71.889259,86.251953 73.590240,86.251953 
	C74.346954,92.625557 76.348854,94.606857 81.189827,93.991859 
	C85.377121,93.459908 88.685822,89.651985 87.954170,85.870819 
	C87.104141,81.477875 83.052719,81.171516 79.442696,79.761612 
z"/>
<path fill="#59595C" opacity="1.000000" stroke="none" 
	d="
M108.960556,117.251511 
	C110.369873,127.211403 111.596573,136.757950 113.286522,146.221756 
	C113.552940,147.713730 115.914940,148.831497 117.666313,150.454254 
	C117.489861,150.982803 117.035889,152.342651 116.532951,153.849182 
	C112.598671,153.849182 108.632538,153.849182 104.615021,153.849182 
	C102.594353,149.335037 105.943977,149.054199 108.664612,148.701431 
	C108.329109,145.838593 108.027718,143.266876 107.721184,140.651230 
	C96.235703,137.989807 93.398834,139.187500 89.886955,147.479172 
	C90.953346,149.806503 91.727837,151.496750 92.874840,154.000000 
	C89.648178,154.000000 87.518661,154.000000 85.389153,154.000000 
	C83.420509,154.000000 81.451866,154.000000 79.247635,154.000000 
	C79.247635,152.229065 79.247635,150.827881 79.247635,149.426697 
	C79.660950,149.718735 80.074272,150.010773 80.487587,150.302811 
	C82.219315,148.450867 84.437523,146.860901 85.599854,144.702347 
	C91.078308,134.528336 96.156250,124.138184 101.669579,113.983955 
	C102.584244,112.299362 104.948860,111.402031 107.072540,109.821541 
	C107.937592,113.075363 108.434151,114.943115 108.960556,117.251511 
M105.111931,134.991821 
	C105.698776,134.604218 106.835503,134.130386 106.790268,133.841904 
	C106.072899,129.267029 105.203972,124.715904 104.129631,118.847992 
	C101.152611,124.813118 98.699661,129.728165 96.069138,134.999008 
	C99.232994,134.999008 101.730659,134.999008 105.111931,134.991821 
z"/>
<path fill="#1C9DD9" opacity="1.000000" stroke="none" 
	d="
M182.991989,85.887756 
	C182.561920,88.558258 182.137985,90.787636 181.645370,93.378296 
	C183.210648,93.768959 184.408173,94.067841 185.606567,94.367783 
	C184.007004,101.497040 181.893784,101.876083 176.112305,96.754517 
	C171.656570,97.919411 167.729980,99.455093 163.689377,99.863831 
	C159.366806,100.301086 156.895370,97.488396 157.070129,93.181671 
	C157.262299,88.445312 157.605408,83.646591 158.612061,79.034203 
	C159.369812,75.562225 159.221573,73.550301 155.141678,73.679268 
	C156.162643,68.308884 157.075531,67.997719 166.805832,69.480705 
	C165.556808,76.016182 164.169449,82.528839 163.176849,89.101120 
	C162.979126,90.410255 163.925110,92.513969 165.012314,93.216324 
	C166.050812,93.887199 168.166534,93.649597 169.453644,93.049599 
	C176.249863,89.881454 176.838516,83.253029 177.981476,76.992645 
	C178.098770,76.350243 177.997208,75.667885 177.997208,74.672394 
	C176.711136,74.259605 175.417389,73.844360 173.790680,73.322235 
	C175.668549,65.593727 181.660812,70.580826 185.908234,68.447067 
	C184.835220,74.715118 183.916687,80.080872 182.991989,85.887756 
z"/>
<path fill="#59595C" opacity="1.000000" stroke="none" 
	d="
M187.047211,146.140091 
	C187.387863,147.358353 187.779022,148.833450 188.134048,148.824799 
	C190.650848,148.763535 191.907028,150.230698 190.740173,152.076279 
	C189.992371,153.259033 187.441193,153.798630 185.746613,153.709625 
	C184.631638,153.651077 183.602386,151.959778 182.830261,151.265366 
	C179.413208,152.156097 175.901382,153.193207 172.332428,153.966751 
	C168.937881,154.702484 166.486923,153.019440 165.104355,150.093826 
	C163.455002,146.603683 164.118103,143.112564 166.405762,140.124176 
	C169.589203,135.965683 174.256668,135.112366 179.142609,135.006348 
	C180.944443,134.967255 182.747864,135.000046 185.851578,135.000046 
	C184.710190,132.012161 184.094604,128.003067 182.948242,127.845085 
	C179.373840,127.352470 175.598587,128.317245 171.171890,128.795776 
	C171.108170,128.624725 170.578613,127.203430 169.527954,124.383469 
	C174.384384,123.794815 178.949768,122.388199 183.265869,122.938072 
	C188.454773,123.599152 190.580322,127.160820 189.915604,132.380951 
	C189.343811,136.871521 188.053589,141.270599 187.047211,146.140091 
M170.517548,142.013474 
	C168.570343,144.628494 168.382462,147.796371 171.118698,149.209137 
	C172.864517,150.110519 176.501022,149.381287 178.130692,148.007828 
	C180.676254,145.862457 182.239075,142.551025 184.218262,139.733627 
	C183.846085,139.211304 183.473907,138.688995 183.101730,138.166687 
	C179.092361,139.260880 175.082993,140.355087 170.517548,142.013474 
z"/>
<path fill="#1C9DD9" opacity="1.000000" stroke="none" 
	d="
M104.398918,97.885895 
	C98.364494,92.905739 97.433838,84.044678 102.875168,75.363457 
	C106.012932,70.357384 114.790024,66.602028 121.000481,68.068703 
	C126.483971,69.363701 127.419304,71.078987 126.615387,78.791519 
	C125.074211,78.870514 123.473312,78.952560 121.918488,79.032257 
	C120.081985,74.024033 117.822891,72.896507 113.670929,74.781883 
	C107.703804,77.491493 104.022209,84.834930 106.232941,89.617912 
	C108.813484,95.200981 114.446205,95.473503 123.014465,90.263977 
	C123.688309,91.919243 124.344833,93.531960 125.092842,95.369400 
	C118.826759,100.804855 112.060005,101.527031 104.398918,97.885895 
z"/>
<path fill="#59595C" opacity="1.000000" stroke="none" 
	d="
M201.754837,152.504333 
	C200.274033,153.341751 198.975723,153.788742 196.454666,154.656723 
	C197.432266,149.333160 198.262100,145.086166 198.981567,140.820557 
	C199.712006,136.489929 200.333572,132.140930 200.904861,128.435333 
	C199.189987,126.971329 197.788025,125.774445 196.386047,124.577568 
	C196.718124,123.907341 197.050217,123.237122 197.382294,122.566902 
	C200.672607,123.253090 203.962906,123.939270 207.253204,124.625458 
	C207.124893,124.914673 206.996567,125.203888 206.868240,125.493103 
	C209.269196,124.642754 211.624237,123.616768 214.079666,122.974861 
	C221.572571,121.016037 226.396301,125.484222 224.930847,132.954803 
	C224.368912,135.819366 223.259171,138.636871 223.130127,141.508667 
	C223.005371,144.285461 219.565765,148.465057 225.631973,149.583939 
	C225.998779,149.651596 225.942596,152.012573 226.080231,153.278854 
	C219.192719,154.815231 216.353729,151.977921 217.777679,145.429642 
	C218.641754,141.456024 219.577606,137.449661 219.841187,133.416183 
	C219.956604,131.650269 218.823608,128.566666 217.637527,128.223373 
	C215.527878,127.612740 212.405655,127.880447 210.673203,129.125397 
	C206.927948,131.816711 204.153168,135.413818 203.884583,140.572144 
	C203.683029,144.442703 202.617966,148.268295 201.754837,152.504333 
z"/>
<path fill="#59595C" opacity="1.000000" stroke="none" 
	d="
M261.002441,137.421448 
	C262.794128,129.645721 266.582764,124.409393 274.539368,122.711212 
	C281.685364,121.186035 286.941376,124.899353 286.997437,132.114624 
	C287.013977,134.242203 287.000000,136.370010 287.000000,139.000275 
	C280.868042,139.000275 275.099731,139.066971 269.333862,138.976685 
	C265.526489,138.917053 264.190002,139.962265 265.867218,143.979187 
	C268.001038,149.089676 271.936615,150.994812 277.108215,149.042679 
	C279.146240,148.273392 281.432556,148.161957 284.212708,147.636169 
	C283.781189,149.354736 283.828125,150.480042 283.290070,151.085419 
	C280.855194,153.824875 272.115875,154.971481 267.888641,153.412918 
	C262.671661,151.489456 260.809357,147.593170 260.992035,142.349030 
	C261.044098,140.855026 261.000305,139.357681 261.002441,137.421448 
M270.880981,135.000000 
	C274.490082,135.000000 278.099213,135.000000 281.669220,135.000000 
	C282.051361,129.873413 281.136230,127.906639 278.230042,127.093300 
	C274.370148,126.013046 269.966370,128.964554 267.090515,134.808304 
	C268.159851,134.878784 269.077057,134.939240 270.880981,135.000000 
z"/>
<path fill="#59595C" opacity="1.000000" stroke="none" 
	d="
M257.258423,132.205566 
	C254.976456,133.170258 253.452164,133.875977 252.741470,130.584946 
	C252.421112,129.101471 249.465897,127.133064 247.759552,127.183708 
	C240.011002,127.413605 234.617401,134.933289 235.864594,142.321930 
	C237.066940,149.444885 241.421356,151.462814 248.079605,148.909851 
	C249.865723,148.225021 251.454483,147.025421 253.321106,145.954712 
	C255.579697,148.004395 255.990677,149.569351 253.010406,151.607834 
	C247.898468,155.104355 239.003006,154.906723 234.683197,151.277084 
	C229.393845,146.832840 230.422012,140.909058 231.388824,135.642288 
	C232.527557,129.438950 236.915146,124.895622 243.191162,123.153671 
	C245.826187,122.422302 248.901871,122.585678 251.644913,123.078621 
	C257.602997,124.149307 258.438843,125.659027 257.258423,132.205566 
z"/>
<path fill="#1C9DD9" opacity="1.000000" stroke="none" 
	d="
M138.681152,91.673477 
	C137.309967,99.677055 137.309967,99.677055 131.059494,98.329659 
	C132.430756,90.501854 133.802917,82.668976 134.987686,75.905746 
	C133.257202,74.010986 132.141907,72.789795 131.026596,71.568611 
	C132.693100,70.712440 134.312424,69.288795 136.038162,69.145370 
	C138.141541,68.970566 140.334366,69.872215 142.170486,71.277008 
	C145.181824,70.026314 148.193146,68.775620 151.713013,67.313713 
	C151.959457,71.518433 152.739746,73.675674 147.907089,75.521416 
	C141.752594,77.872009 139.213913,84.466507 138.681152,91.673477 
z"/>
<path fill="#59595C" opacity="1.000000" stroke="none" 
	d="
M128.999908,135.012543 
	C128.256653,139.754547 127.514542,144.054672 126.740967,148.537125 
	C128.454224,148.885910 129.676544,149.134750 131.777756,149.562531 
	C130.508636,151.338623 129.497650,153.786774 128.650360,153.731369 
	C126.680916,153.602615 123.919312,152.761581 123.085983,151.295593 
	C122.017731,149.416321 122.064331,146.565231 122.439270,144.264679 
	C123.772171,136.086227 125.466644,127.967110 126.970482,119.815613 
	C127.148468,118.850876 126.994682,117.824928 126.994682,118.024399 
	C124.990204,115.723106 123.593666,114.119781 122.197128,112.516457 
	C122.508263,112.123161 122.819405,111.729874 123.130539,111.336578 
	C126.202690,111.336578 129.274841,111.336578 133.178818,111.336578 
	C131.781052,119.110100 130.391068,126.840393 128.999908,135.012543 
z"/>
<path fill="#59595C" opacity="1.000000" stroke="none" 
	d="
M138.117905,111.845047 
	C140.972946,111.244972 143.733536,111.070702 147.502640,110.832764 
	C146.405685,117.380142 145.462646,123.251068 144.429565,129.106094 
	C143.415741,134.852005 142.255783,140.572800 141.314209,146.329849 
	C141.196381,147.050293 141.898209,148.019669 142.433685,148.707550 
	C143.468323,150.036728 144.655243,151.247375 146.248032,153.032913 
	C138.316223,154.772736 135.887466,152.479248 136.957397,145.934021 
	C138.554733,136.162674 140.128601,126.387497 141.755295,116.349586 
	C140.331894,116.138748 138.755707,115.905273 136.996994,115.644768 
	C137.376694,114.396690 137.700058,113.333771 138.117905,111.845047 
z"/>
<path fill="#59595C" opacity="1.000000" stroke="none" 
	d="
M157.016663,123.000114 
	C161.382324,122.421356 161.347122,124.714928 160.783981,127.491394 
	C159.397934,134.324768 158.057632,141.167404 156.911163,146.938126 
	C158.690140,149.035599 159.824188,150.372681 160.958237,151.709763 
	C159.876205,152.471710 158.454773,154.099457 157.775772,153.833282 
	C155.737885,153.034424 152.764069,151.778595 152.397018,150.184845 
	C151.738312,147.324478 152.550415,144.061172 153.045120,141.014526 
	C153.772766,136.533417 154.761322,132.094681 155.692749,127.363472 
	C154.204147,127.126694 152.697693,126.887070 151.094589,126.632080 
	C150.905289,122.022224 154.192200,123.218964 157.016663,123.000114 
z"/>
<path fill="#F89820" opacity="1.000000" stroke="none" 
	d="
M17.616245,126.861320 
	C14.482133,127.177002 11.193830,128.146515 8.938604,127.029762 
	C6.104442,125.626328 4.985759,122.406792 6.979145,118.973404 
	C9.005991,115.482399 12.083550,113.618942 15.591833,115.458145 
	C18.244013,116.848534 21.127621,119.408943 19.223265,123.483101 
	C18.748262,124.499306 18.352739,125.552673 17.616245,126.861320 
z"/>
<path fill="#E26C26" opacity="1.000000" stroke="none" 
	d="
M23.973213,102.999977 
	C25.199036,106.506447 26.241934,110.545250 22.418125,112.536514 
	C20.210024,113.686386 16.044661,113.492279 14.150291,112.061989 
	C12.649332,110.928726 12.175102,106.379845 13.248322,104.478363 
	C14.295300,102.623383 17.827681,102.009003 20.390165,101.270889 
	C21.154074,101.050842 22.326406,102.248695 23.669453,102.896149 
	C24.027300,102.995399 23.973213,102.999977 23.973213,102.999977 
z"/>
<path fill="#E6AD23" opacity="1.000000" stroke="none" 
	d="
M24.026442,103.022980 
	C23.995556,102.298599 24.232878,101.385468 23.892393,100.820671 
	C21.566835,96.962975 23.359322,94.339745 26.840946,93.285744 
	C29.670889,92.429031 33.316059,92.002007 34.863544,95.893822 
	C36.359352,99.655678 34.526718,103.862732 30.742466,104.460419 
	C28.854403,104.758636 26.674309,103.207886 24.299759,102.746719 
	C23.973213,102.999977 24.027300,102.995399 24.026442,103.022980 
z"/>
<path fill="#BF5F28" opacity="1.000000" stroke="none" 
	d="
M42.379436,101.732773 
	C38.506855,100.272720 37.107727,97.545464 38.213924,94.218445 
	C38.675236,92.831001 40.847954,91.522858 42.474277,91.124207 
	C45.088028,90.483528 48.048294,90.791969 48.871433,94.051506 
	C49.714451,97.389748 48.756100,100.251801 45.059917,101.449699 
	C44.307316,101.693611 43.500835,101.771271 42.379436,101.732773 
z"/>
<path fill="#DB9B34" opacity="1.000000" stroke="none" 
	d="
M52.664940,103.117996 
	C51.726391,99.621994 51.130318,96.097580 55.326649,95.234352 
	C57.026810,94.884613 60.014702,96.070305 60.839088,97.479912 
	C61.711609,98.971825 61.239357,103.092438 60.420856,103.376701 
	C58.195438,104.149620 55.476532,103.501640 52.664940,103.117996 
z"/>
<path fill="#F89820" opacity="1.000000" stroke="none" 
	d="
M51.998127,66.921661 
	C52.096035,71.220329 49.100880,72.455566 46.522404,71.707268 
	C44.650215,71.163933 42.825062,68.347527 42.294308,66.216972 
	C42.043064,65.208443 44.641617,62.694202 46.353004,62.162556 
	C49.648270,61.138882 52.099251,62.472656 51.998127,66.921661 
z"/>
<path fill="#E26C26" opacity="1.000000" stroke="none" 
	d="
M37.996983,52.166897 
	C41.335411,52.436962 45.991646,50.113537 46.052727,56.605282 
	C46.081539,59.667820 45.253284,61.150208 41.893471,61.070286 
	C38.905769,60.999210 36.545330,60.782444 36.989426,56.906132 
	C37.063675,56.258045 36.990913,55.593113 37.060097,54.258217 
	C37.421734,53.109280 37.709358,52.638088 37.996983,52.166897 
z"/>
<path fill="#E6AD23" opacity="1.000000" stroke="none" 
	d="
M37.677299,51.967911 
	C37.709358,52.638088 37.421734,53.109280 37.023781,53.833511 
	C34.321102,55.551304 31.351336,57.292900 29.139961,54.277061 
	C28.073925,52.823215 28.736868,50.101597 28.616907,47.954041 
	C30.886053,47.957371 33.249290,47.592545 35.380104,48.137127 
	C36.289284,48.369492 36.713192,50.500622 37.677299,51.967911 
z"/>
<path fill="#F99B1F" opacity="1.000000" stroke="none" 
	d="
M63.008911,107.057747 
	C67.533829,104.298065 70.317612,104.740784 70.832657,108.205582 
	C71.088066,109.923752 70.626732,112.867058 69.563118,113.397209 
	C68.017181,114.167770 65.119812,113.912926 63.772194,112.855156 
	C62.718437,112.028053 63.143963,109.316315 63.008911,107.057747 
z"/>
<path fill="#BF5F28" opacity="1.000000" stroke="none" 
	d="
M17.049614,50.900970 
	C19.450951,46.515640 23.893541,45.402538 25.033340,48.607220 
	C25.616690,50.247372 25.019341,53.554863 23.808111,54.341179 
	C20.741419,56.332027 18.250154,54.733444 17.049614,50.900970 
z"/>
<path fill="#F89820" opacity="1.000000" stroke="none" 
	d="
M74.786453,120.565842 
	C75.636887,124.968292 73.879593,126.405205 69.946495,126.028389 
	C66.269646,125.676117 66.834457,123.011627 67.081223,120.846802 
	C67.470345,117.433121 71.055534,117.161446 74.786453,120.565842 
z"/>
<path fill="#DB9B34" opacity="1.000000" stroke="none" 
	d="
M12.608227,51.277882 
	C13.813027,53.272476 14.674042,55.080929 15.535055,56.889385 
	C13.821595,57.580173 12.137489,58.641201 10.380305,58.780518 
	C9.672100,58.836670 7.911827,56.353554 8.164075,55.921494 
	C9.212495,54.125706 10.845778,52.671375 12.608227,51.277882 
z"/>
<path fill="#E26C26" opacity="1.000000" stroke="none" 
	d="
M66.661026,131.895584 
	C68.686325,131.951797 70.664040,131.914001 72.025871,132.811111 
	C72.764496,133.297714 72.996941,136.287430 72.518829,136.572296 
	C70.853897,137.564331 68.779030,137.868362 66.017860,138.682175 
	C66.161499,135.931458 66.259155,134.061295 66.661026,131.895584 
z"/>
<path fill="#E6AD23" opacity="1.000000" stroke="none" 
	d="
M59.130066,145.998657 
	C60.806713,144.761459 62.438969,143.778336 64.206993,143.246765 
	C64.473099,143.166763 65.784470,145.171875 65.848541,146.257538 
	C65.898621,147.106033 64.499199,148.867157 64.200943,148.773117 
	C62.436520,148.216766 60.805630,147.236923 59.130066,145.998657 
z"/>
<path fill="#59595C" opacity="1.000000" stroke="none" 
	d="
M161.929993,116.920631 
	C160.187683,116.979683 158.877808,116.979683 157.541595,116.979683 
	C157.782135,115.000069 157.989990,113.289375 158.238251,111.246048 
	C159.587479,111.167938 161.002930,111.085991 163.103149,110.964401 
	C162.826859,113.164101 162.594635,115.012840 161.929993,116.920631 
z"/>
<path fill="#BF5F28" opacity="1.000000" stroke="none" 
	d="
M51.124744,154.932861 
	C50.817413,153.105011 50.826229,151.308136 51.150402,149.570084 
	C51.192665,149.343506 53.242699,149.013123 53.691296,149.438660 
	C54.670815,150.367844 55.218204,151.752563 55.942139,152.951172 
	C54.474373,153.628159 53.006607,154.305145 51.124744,154.932861 
z"/>
<path fill="#E26C26" opacity="1.000000" stroke="none" 
	d="
M5.236418,80.060272 
	C8.168083,79.612686 9.672430,80.540298 8.881151,83.168304 
	C8.588297,84.140938 6.822602,85.574745 6.156469,85.374557 
	C3.190052,84.483063 3.427629,82.345100 5.236418,80.060272 
z"/>
<path fill="#59595C" opacity="1.000000" stroke="none" 
	d="
M289.095703,121.384033 
	C290.588348,121.092453 292.010071,121.185501 294.208282,121.329369 
	C292.697418,123.244759 291.640869,124.584160 290.231995,125.980392 
	C289.594666,124.614365 289.309692,123.191513 289.095703,121.384033 
z"/>
<path fill="#59595C" opacity="1.000000" stroke="none" 
	d="
M297.910767,116.598068 
	C297.601196,117.431496 297.164337,117.982452 296.727478,118.533417 
	C296.489258,117.963280 296.251007,117.393143 296.006165,116.494843 
	C296.594208,116.216309 297.188843,116.265953 297.910767,116.598068 
z"/>
<path fill="#FFFFFF" opacity="1.000000" stroke="none" 
	d="
M104.670135,134.995422 
	C101.730659,134.999008 99.232994,134.999008 96.069138,134.999008 
	C98.699661,129.728165 101.152611,124.813118 104.129631,118.847992 
	C105.203972,124.715904 106.072899,129.267029 106.790268,133.841904 
	C106.835503,134.130386 105.698776,134.604218 104.670135,134.995422 
z"/>
<path fill="#FFFFFF" opacity="1.000000" stroke="none" 
	d="
M170.795593,141.731384 
	C175.082993,140.355087 179.092361,139.260880 183.101730,138.166687 
	C183.473907,138.688995 183.846085,139.211304 184.218262,139.733627 
	C182.239075,142.551025 180.676254,145.862457 178.130692,148.007828 
	C176.501022,149.381287 172.864517,150.110519 171.118698,149.209137 
	C168.382462,147.796371 168.570343,144.628494 170.795593,141.731384 
z"/>
<path fill="#FFFFFF" opacity="1.000000" stroke="none" 
	d="
M270.437622,134.999847 
	C269.077057,134.939240 268.159851,134.878784 267.090515,134.808304 
	C269.966370,128.964554 274.370148,126.013046 278.230042,127.093300 
	C281.136230,127.906639 282.051361,129.873413 281.669220,135.000000 
	C278.099213,135.000000 274.490082,135.000000 270.437622,134.999847 
z"/>
</svg>